<svg width="43" height="48" viewBox="0 0 43 48" fill="none" xmlns="http://www.w3.org/2000/svg">
<path d="M2.48378 37.7688L1.4574 37.1996C1.14992 37.0292 0.892774 36.7816 0.711584 36.4816C0.530394 36.1817 0.43149 35.8397 0.424742 35.4899L0.00039202 13.063C-0.00677195 12.7025 0.0843702 12.3467 0.264147 12.0335C0.443924 11.7202 0.705639 11.4611 1.02155 11.2837L20.6054 0.259822C20.9129 0.0869035 21.2607 -0.00267372 21.614 6.07814e-05C21.9673 0.00279529 22.3137 0.0977481 22.6185 0.275405L41.6923 11.4167C41.9906 11.5907 42.2388 11.8382 42.413 12.1353C42.5871 12.4324 42.6812 12.7691 42.6862 13.1129L42.9998 34.8407C43.005 35.1926 42.9167 35.5396 42.7438 35.8467C42.5709 36.1538 42.3196 36.4101 42.0152 36.5899L23.1808 47.7176C22.8817 47.8948 22.5416 47.9919 22.1936 47.9995C21.8456 48.0072 21.5015 47.9251 21.1949 47.7613L11.1087 42.3828C10.7921 42.2141 10.5266 41.9643 10.3399 41.6593C10.1532 41.3543 10.052 41.0052 10.0468 40.6481L9.96425 34.9685C9.95979 34.6105 10.052 34.2578 10.2312 33.9473C10.4104 33.6367 10.6701 33.3796 10.9833 33.2026L15.8822 30.4386C16.1829 30.269 16.5226 30.1792 16.8684 30.1779C17.2142 30.1766 17.5545 30.2639 17.8565 30.4314L20.5521 31.9229C20.8433 32.0841 21.1702 32.171 21.5035 32.1757C21.8367 32.1804 22.166 32.1028 22.4617 31.95L27.7326 29.2264C28.0626 29.0558 28.3387 28.7977 28.5302 28.4807C28.7217 28.1637 28.8211 27.8002 28.8175 27.4305L28.8071 26.3648C28.8034 26.0107 28.7053 25.664 28.5227 25.3599C28.3402 25.0559 28.0798 24.8053 27.768 24.634C27.4562 24.4626 27.1043 24.3764 26.7481 24.3843C26.3919 24.3922 26.0442 24.4939 25.7405 24.679L23.0104 26.3409C22.712 26.5226 22.3714 26.6242 22.0216 26.6359L21.6966 26.6452C21.1721 26.6628 20.6615 26.4765 20.273 26.1259L20.1413 26.0064C19.9315 25.8155 19.7647 25.5826 19.6519 25.323C19.5391 25.0634 19.4829 24.783 19.487 24.5003V24.5003C19.4921 24.1582 19.5854 23.8231 19.7579 23.527C19.9305 23.231 20.1766 22.9839 20.4727 22.8093L23.9929 20.7318C24.2879 20.5577 24.5332 20.3115 24.7055 20.0167C24.8779 19.7219 24.9715 19.3881 24.9776 19.0472C24.9837 18.7063 24.902 18.3695 24.7402 18.0688C24.5785 17.7681 24.3421 17.5134 24.0535 17.329L23.0992 16.7183C22.7971 16.5254 22.4485 16.4162 22.0897 16.402C21.7308 16.3877 21.3747 16.4689 21.058 16.6372L16.087 19.2756C15.7656 19.4467 15.4969 19.7013 15.3097 20.0123C15.1225 20.3233 15.0238 20.679 15.0241 21.0414V24.3788C15.0239 24.7246 14.9336 25.0646 14.762 25.3655C14.5904 25.6664 14.3432 25.918 14.0447 26.0958L12.9169 26.7668C12.6118 26.9483 12.2638 27.0464 11.9082 27.051C11.5526 27.0555 11.2021 26.9664 10.8924 26.7927C10.5827 26.6191 10.3247 26.367 10.1448 26.0621C9.96491 25.7572 9.86943 25.4105 9.8681 25.057L9.8336 18.6617C9.83153 18.315 9.92025 17.9737 10.091 17.6714C10.2618 17.3691 10.5088 17.1162 10.8077 16.9374L20.3117 11.2453C20.6191 11.0611 20.9705 10.962 21.3295 10.9583C21.6884 10.9547 22.0418 11.0466 22.353 11.2245L32.6534 17.0984C32.9597 17.2731 33.2144 17.5247 33.392 17.8281C33.5696 18.1314 33.6638 18.4759 33.6651 18.8268L33.7028 30.0169C33.7042 30.3713 33.6109 30.7197 33.4324 31.0265C33.2539 31.3333 32.9966 31.5875 32.6868 31.763L23.2801 37.0916C22.9624 37.2719 22.6012 37.3628 22.2355 37.3544C21.8697 37.3459 21.5132 37.2386 21.2043 37.0438L18.6153 35.4141C18.3018 35.2163 17.9392 35.1087 17.5678 35.1032C17.1964 35.0977 16.8308 35.1945 16.5114 35.3829L16.1069 35.6208C15.7971 35.8031 15.5422 36.0646 15.3687 36.3781C15.1952 36.6916 15.1094 37.0456 15.1202 37.4032L15.1432 38.1511C15.1539 38.4867 15.2494 38.8143 15.4209 39.1036C15.5924 39.393 15.8344 39.6348 16.1246 39.8068L20.7235 42.5459C21.0266 42.7261 21.372 42.8239 21.7252 42.8296C22.0783 42.8352 22.4267 42.7485 22.7355 42.5781L37.1415 34.6381C37.4544 34.4653 37.7154 34.213 37.8977 33.9069C38.0801 33.6008 38.1773 33.252 38.1793 32.8962L38.2598 15.451C38.2616 15.0963 38.1685 14.7474 37.99 14.4403C37.8115 14.1331 37.554 13.8786 37.2439 13.7029L22.9613 5.60089C22.6539 5.42686 22.3059 5.33629 21.9522 5.3383C21.5984 5.3403 21.2515 5.43481 20.9461 5.61232L6.40954 14.0706C6.10504 14.2473 5.85264 14.5006 5.67763 14.8048C5.50263 15.1091 5.41117 15.4537 5.41242 15.8042L5.47827 36.0155C5.47944 36.3648 5.38856 36.7083 5.21467 37.0119C5.04078 37.3154 4.78994 37.5685 4.48711 37.7458C4.18427 37.9231 3.84 38.0185 3.48853 38.0226C3.13707 38.0266 2.79066 37.9391 2.48378 37.7688V37.7688Z" fill="black"/>
</svg>
