<svg width="28" height="27" viewBox="0 0 28 27" fill="none" xmlns="http://www.w3.org/2000/svg">
<g clip-path="url(#clip0)">
<path d="M19.494 0.520752H7.948C6.843 0.520752 5.951 1.36307 5.951 2.4V24.4414C5.951 25.4774 6.843 26.3188 7.948 26.3188H19.494C20.597 26.3188 21.491 25.4774 21.491 24.4414V2.4C21.491 1.36307 20.597 0.520752 19.494 0.520752ZM10.872 1.66202H16.572C16.716 1.66202 16.833 1.86414 16.833 2.11421C16.833 2.36427 16.716 2.56733 16.572 2.56733H10.872C10.727 2.56733 10.612 2.36427 10.612 2.11421C10.612 1.86414 10.727 1.66202 10.872 1.66202ZM13.722 24.464C13.019 24.464 12.447 23.9262 12.447 23.2644C12.447 22.6026 13.019 22.0667 13.722 22.0667C14.423 22.0667 14.995 22.6026 14.995 23.2644C14.995 23.9262 14.423 24.464 13.722 24.464ZM19.995 20.3567H7.448V3.69168H19.995V20.3567Z" fill="white"/>
</g>
<defs>
<clipPath id="clip0">
<rect width="27.442" height="25.798" fill="white" transform="translate(0 0.520752)"/>
</clipPath>
</defs>
</svg>
